<svg width="31" height="19" viewBox="0 0 31 19" fill="none" xmlns="http://www.w3.org/2000/svg">
<path d="M0.0833319 1.7436C0.0833319 1.03319 0.770917 0.458392 1.61729 0.458392L13.966 0.458391C14.3729 0.458391 14.763 0.593798 15.0507 0.834821C15.3384 1.07584 15.5 1.40274 15.5 1.7436C15.5 2.08446 15.3384 2.41136 15.0507 2.65238C14.763 2.8934 14.3729 3.02881 13.966 3.02881L1.61729 3.02881C0.769376 3.02881 0.083332 2.45402 0.0833319 1.7436Z" fill="white"/>
<path d="M0.0831927 9.5002C0.0831927 8.78978 0.770777 8.21499 1.61715 8.21499L29.3826 8.21499C29.7894 8.21498 30.1796 8.35039 30.4672 8.59141C30.7549 8.83244 30.9165 9.15933 30.9165 9.50019C30.9165 9.84105 30.7549 10.1679 30.4672 10.409C30.1796 10.65 29.7894 10.7854 29.3826 10.7854L1.61715 10.7854C0.769236 10.7854 0.0831928 10.2093 0.0831927 9.5002Z" fill="white"/>
<path d="M1.61716 15.9713C1.21033 15.9713 0.820158 16.1067 0.532486 16.3478C0.244812 16.5888 0.0831984 16.9157 0.0831984 17.2565C0.0831985 17.5974 0.244812 17.9243 0.532486 18.1653C0.820158 18.4063 1.21033 18.5417 1.61716 18.5417L20.1326 18.5417C20.334 18.5417 20.5335 18.5085 20.7196 18.4439C20.9057 18.3793 21.0748 18.2847 21.2172 18.1653C21.3597 18.046 21.4727 17.9043 21.5498 17.7484C21.6269 17.5924 21.6665 17.4253 21.6665 17.2565C21.6665 17.0878 21.6269 16.9206 21.5498 16.7647C21.4727 16.6088 21.3597 16.4671 21.2172 16.3478C21.0748 16.2284 20.9057 16.1337 20.7196 16.0692C20.5335 16.0046 20.334 15.9713 20.1326 15.9713L1.61716 15.9713Z" fill="white"/>
</svg>
